<svg id="cont-icon02" xmlns="http://www.w3.org/2000/svg" width="44" height="44" viewBox="0 0 44 44">
  <path id="Path_33607" data-name="Path 33607" d="M0,0H44V44H0Z" fill="none"/>
  <path id="Path_33608" data-name="Path 33608" d="M14.673,17.086a19.356,19.356,0,0,0,7.247,7.247l1.621-2.27a1.834,1.834,0,0,1,2.373-.543,20.945,20.945,0,0,0,8.4,2.5,1.834,1.834,0,0,1,1.689,1.828v8.182a1.834,1.834,0,0,1-1.647,1.825A28.439,28.439,0,0,1,3.15,4.647,1.834,1.834,0,0,1,4.975,3h8.182a1.834,1.834,0,0,1,1.828,1.689,20.944,20.944,0,0,0,2.5,8.4,1.834,1.834,0,0,1-.543,2.373l-2.27,1.621Zm-4.625-1.2,3.484-2.488a24.59,24.59,0,0,1-2.012-6.726H6.686c-.011.3-.017.611-.017.917A24.752,24.752,0,0,0,31.422,32.339c.306,0,.612-.006.917-.018V27.485a24.59,24.59,0,0,1-6.726-2.012l-2.488,3.484a22.815,22.815,0,0,1-2.912-1.375l-.106-.061A23.024,23.024,0,0,1,11.484,18.9l-.061-.106a22.815,22.815,0,0,1-1.375-2.912Z" transform="translate(2.497 2.497)" fill="#c05deb"/>
</svg>
