<svg id="cont-icon03" xmlns="http://www.w3.org/2000/svg" width="44.024" height="44.024" viewBox="0 0 44.024 44.024">
  <path id="Path_33605" data-name="Path 33605" d="M0,0H44.024V44.024H0Z" fill="none"/>
  <path id="Path_33606" data-name="Path 33606" d="M19.2,36.467l8.912-9.027a12.883,12.883,0,0,0,0-18.053,12.489,12.489,0,0,0-17.822,0,12.883,12.883,0,0,0,0,18.053Zm0,5.157L7.746,30.019a16.564,16.564,0,0,1,0-23.212,16.057,16.057,0,0,1,22.915,0,16.564,16.564,0,0,1,0,23.212Zm0-19.564a3.648,3.648,0,1,0-3.6-3.647A3.624,3.624,0,0,0,19.2,22.06Zm0,3.647a7.3,7.3,0,1,1,7.2-7.295A7.249,7.249,0,0,1,19.2,25.708Z" transform="translate(2.809 1.873)" fill="#c05deb"/>
</svg>
