<svg id="features01" xmlns="http://www.w3.org/2000/svg" width="186.743" height="190.843" viewBox="0 0 186.743 190.843">
  <g id="Group_868" data-name="Group 868">
    <g id="Group_864" data-name="Group 864">
      <g id="Group_818" data-name="Group 818" transform="translate(4.1 8.2)">
        <path id="Path_526" data-name="Path 526" d="M301.838,427.505h-6.753a4.825,4.825,0,0,0-1.613.281l-.248.088V457.86l.373.327a90.843,90.843,0,0,0,12.734-2.633l.373-.494V432.37A4.87,4.87,0,0,0,301.838,427.505Z" transform="translate(-190.077 -276.357)" fill="#d8ecfe"/>
        <path id="Path_527" data-name="Path 527" d="M196.622,91.95l-.953-.373h-38.4V78.166a1.829,1.829,0,0,0-.111-.627h33.926l.613-.373A91.329,91.329,0,1,0,37.746,171.875l.373-.136V105.658a2.363,2.363,0,0,1,2.36-2.36h17.97v10.325a2.736,2.736,0,0,0,2.733,2.733h35.4a2.736,2.736,0,0,0,2.733-2.733V103.3h17.97a2.363,2.363,0,0,1,2.36,2.36v59.285h34.289v26.779l.373.212A91.426,91.426,0,0,0,196.622,91.95Z" transform="translate(-16.5 -22)" fill="#d8ecfe"/>
      </g>
      <g id="Group_819" data-name="Group 819" transform="translate(160.114 126.375)">
        <path id="Path_528" data-name="Path 528" d="M457.414,355.337l-16.295-16.295a1.479,1.479,0,0,1-.14.172l-5.751,5.751a1.527,1.527,0,0,1-.171.141L451.352,361.4a1.863,1.863,0,0,0,2.636,0l3.426-3.426A1.864,1.864,0,0,0,457.414,355.337Z" transform="translate(-435.058 -339.042)" fill="#5a5a5a"/>
      </g>
      <g id="Group_820" data-name="Group 820" transform="translate(160.114 130.522)">
        <path id="Path_529" data-name="Path 529" d="M457.415,362.315l-.613-.613-2.813,2.813a1.863,1.863,0,0,1-2.636,0l-14.348-14.348-1.775,1.775a1.539,1.539,0,0,1-.171.141l16.294,16.294a1.863,1.863,0,0,0,2.636,0l3.426-3.426A1.864,1.864,0,0,0,457.415,362.315Z" transform="translate(-435.059 -350.167)" fill="#444"/>
      </g>
      <g id="Group_836" data-name="Group 836">
        <path id="Path_530" data-name="Path 530" d="M293.224,404.491v9.358a4.469,4.469,0,0,1,1.861-.407h6.753a4.493,4.493,0,0,1,4.493,4.493v23.184a90.8,90.8,0,0,0,21.555-9.263V404.491Z" transform="translate(-185.977 -253.721)" fill="#0172fb"/>
        <g id="Group_821" data-name="Group 821" transform="translate(35.053 63.366)">
          <path id="Path_531" data-name="Path 531" d="M392.507,171v13.784h39.723A90.646,90.646,0,0,0,427.307,170H392.114A1.48,1.48,0,0,1,392.507,171Z" transform="translate(-283.06 -170)" fill="#ffbd86"/>
          <path id="Path_532" data-name="Path 532" d="M99.54,184.784h45.417V171a1.48,1.48,0,0,1,.393-1H100.825a8.789,8.789,0,0,1,1.05,4.175V178.8A8.812,8.812,0,0,1,99.54,184.784Z" transform="translate(-99.54 -170)" fill="#ffbd86"/>
        </g>
        <g id="Group_822" data-name="Group 822" transform="translate(35.053 72.932)">
          <path id="Path_533" data-name="Path 533" d="M393.167,200.881H432.89q-.634-2.641-1.421-5.218h-38.3Z" transform="translate(-283.72 -195.663)" fill="#f6a96c"/>
          <path id="Path_534" data-name="Path 534" d="M144.957,195.663H101.839a8.815,8.815,0,0,1-2.3,5.218h45.417Z" transform="translate(-99.54 -195.663)" fill="#f6a96c"/>
        </g>
        <path id="Path_535" data-name="Path 535" d="M283.3,167.683H222.25a1.864,1.864,0,0,0-1.864,1.864v21.89h4.087a2.363,2.363,0,0,1,2.36,2.36v.882h18.343a2.363,2.363,0,0,1,2.36,2.36v59.285h35.509a2.117,2.117,0,0,0,2.117-2.117v-84.66A1.863,1.863,0,0,0,283.3,167.683Z" transform="translate(-140.289 -105.181)" fill="#fe9901"/>
        <path id="Path_536" data-name="Path 536" d="M222.25,167.682a1.864,1.864,0,0,0-1.864,1.864v21.89h4.087a2.363,2.363,0,0,1,2.36,2.36v.882h9.146v-27H222.25Z" transform="translate(-140.289 -105.18)" fill="#fb8801"/>
        <g id="Group_832" data-name="Group 832" transform="translate(83.68)">
          <g id="Group_825" data-name="Group 825">
            <path id="Path_537" data-name="Path 537" d="M241.924,28.739h3.414V24.132a8.148,8.148,0,0,1,8.138-8.138h22.958a8.148,8.148,0,0,1,8.138,8.138v4.606h3.414a5.369,5.369,0,0,1,2.117.434V14.055A14.055,14.055,0,0,0,276.048,0H253.861a14.055,14.055,0,0,0-14.055,14.055V29.172A5.368,5.368,0,0,1,241.924,28.739Z" transform="translate(-236.151 0)" fill="#883f2e"/>
            <path id="Path_538" data-name="Path 538" d="M241.924,28.739h3.414V24.132a8.148,8.148,0,0,1,8.138-8.138h1.707V14.055A14.056,14.056,0,0,1,269.239,0H253.862a14.055,14.055,0,0,0-14.055,14.055V29.172A5.366,5.366,0,0,1,241.924,28.739Z" transform="translate(-236.151 0)" fill="#6d3326"/>
            <g id="Group_823" data-name="Group 823" transform="translate(0 28.366)">
              <path id="Path_539" data-name="Path 539" d="M239.186,76.1h-3.414A5.773,5.773,0,0,0,230,81.874v4.234a5.773,5.773,0,0,0,5.773,5.773h3.414Z" transform="translate(-229.999 -76.101)" fill="#f6a96c"/>
              <path id="Path_540" data-name="Path 540" d="M363.321,76.1h-3.414v15.78h3.414a5.773,5.773,0,0,0,5.773-5.773V81.874A5.773,5.773,0,0,0,363.321,76.1Z" transform="translate(-311.485 -76.101)" fill="#ffbd86"/>
            </g>
            <path id="Path_541" data-name="Path 541" d="M299.939,157.913h-11.61a13.843,13.843,0,0,1-2-.147v7.114a7.81,7.81,0,0,0,15.62,0v-7.114A13.853,13.853,0,0,1,299.939,157.913Z" transform="translate(-265.329 -98.96)" fill="#ffbd86"/>
            <path id="Path_542" data-name="Path 542" d="M294.066,164.88v-6.967h-5.737a13.843,13.843,0,0,1-2-.147v7.114a7.8,7.8,0,0,0,11.681,6.777A7.8,7.8,0,0,1,294.066,164.88Z" transform="translate(-265.329 -98.96)" fill="#f6a96c"/>
            <g id="Group_824" data-name="Group 824" transform="translate(8.814 15.621)">
              <path id="Path_543" data-name="Path 543" d="M279.441,85.613h-11.61a14.186,14.186,0,0,1-14.186-14.185V50.419a8.511,8.511,0,0,1,8.511-8.511h22.958a8.511,8.511,0,0,1,8.511,8.511V71.428A14.185,14.185,0,0,1,279.441,85.613Z" transform="translate(-253.646 -41.908)" fill="#fed2a4"/>
            </g>
            <path id="Path_544" data-name="Path 544" d="M262.724,71.428V50.419a8.511,8.511,0,0,1,8.511-8.511h-9.078a8.511,8.511,0,0,0-8.511,8.511V71.428a14.186,14.186,0,0,0,14.186,14.185h9.078a14.186,14.186,0,0,1-14.185-14.185Z" transform="translate(-244.832 -26.287)" fill="#ffbd86"/>
          </g>
          <g id="Group_831" data-name="Group 831" transform="translate(16.483 25.993)">
            <g id="Group_828" data-name="Group 828">
              <g id="Group_826" data-name="Group 826">
                <path id="Path_545" data-name="Path 545" d="M277.016,78.34a2.8,2.8,0,0,1-2.8-2.8V72.532a2.8,2.8,0,1,1,5.591,0v3.013A2.8,2.8,0,0,1,277.016,78.34Z" transform="translate(-274.22 -69.736)" fill="#d88a55"/>
              </g>
              <g id="Group_827" data-name="Group 827" transform="translate(19.052)">
                <path id="Path_546" data-name="Path 546" d="M328.129,78.34a2.8,2.8,0,0,1-2.8-2.8V72.532a2.8,2.8,0,0,1,5.591,0v3.013A2.8,2.8,0,0,1,328.129,78.34Z" transform="translate(-325.333 -69.736)" fill="#d88a55"/>
              </g>
            </g>
            <g id="Group_829" data-name="Group 829" transform="translate(4.049 17.648)">
              <path id="Path_547" data-name="Path 547" d="M294,125.212a11.376,11.376,0,0,1-8.1-3.356,2.8,2.8,0,1,1,3.953-3.953,5.857,5.857,0,0,0,8.288,0,2.8,2.8,0,1,1,3.953,3.953A11.375,11.375,0,0,1,294,125.212Z" transform="translate(-285.082 -117.084)" fill="#d88a55"/>
            </g>
            <g id="Group_830" data-name="Group 830" transform="translate(8.687 4.369)">
              <path id="Path_548" data-name="Path 548" d="M303.237,92.554h-1.943a3.772,3.772,0,0,1-3.767-3.767V84.252a2.8,2.8,0,0,1,5.591,0v2.711h.12a2.8,2.8,0,0,1,0,5.591Z" transform="translate(-297.526 -81.456)" fill="#d88a55"/>
            </g>
          </g>
        </g>
        <g id="Group_835" data-name="Group 835" transform="translate(0 50.444)">
          <g id="Group_833" data-name="Group 833" transform="translate(0 7.876)">
            <path id="Path_549" data-name="Path 549" d="M38.9,165.968a6.8,6.8,0,0,1-6.792-6.792v-.565a4.454,4.454,0,0,0-.547-2.146H12.6a2.315,2.315,0,0,0,0,4.629H25.361v1.483H7.814a2.314,2.314,0,1,0,0,4.629H25.361v1.579H10.9a2.314,2.314,0,0,0,0,4.629h14.46v1.49H14.141a2.314,2.314,0,1,0,0,4.629h19.9a9.22,9.22,0,0,0,9.22-9.22v-4.346H38.9Z" transform="translate(-5.5 -156.465)" fill="#fed2a4"/>
          </g>
          <g id="Group_834" data-name="Group 834" transform="translate(21.517)">
            <path id="Path_550" data-name="Path 550" d="M67.948,145.921v-.565a4.108,4.108,0,0,0-1.2-2.9l-2.772-2.772a2.546,2.546,0,0,1,3.6-3.6l9.2,9.2a9.22,9.22,0,0,1,2.7,6.519v1.29H75.112A7.164,7.164,0,0,1,67.948,145.921Z" transform="translate(-63.227 -135.334)" fill="#ffe5c2"/>
          </g>
        </g>
      </g>
      <g id="Group_841" data-name="Group 841" transform="translate(122.078 88.34)">
        <path id="Path_551" data-name="Path 551" d="M431.93,327.52l-3.339-3.339a21.61,21.61,0,0,1-8.381,8.393l3.333,3.333a1.863,1.863,0,0,0,2.636,0l5.751-5.751A1.863,1.863,0,0,0,431.93,327.52Z" transform="translate(-387.708 -291.685)" fill="#9c9c9c"/>
        <path id="Path_552" data-name="Path 552" d="M431.93,332.187l-.565-.565-5.186,5.186a1.863,1.863,0,0,1-2.636,0l-1.04-1.04a21.513,21.513,0,0,1-2.293,1.473l3.333,3.333a1.863,1.863,0,0,0,2.636,0l5.751-5.751A1.863,1.863,0,0,0,431.93,332.187Z" transform="translate(-387.708 -296.353)" fill="#838383"/>
        <g id="Group_840" data-name="Group 840">
          <g id="Group_837" data-name="Group 837">
            <circle id="Ellipse_18" data-name="Ellipse 18" cx="21.992" cy="21.992" r="21.992" fill="#0172fb"/>
          </g>
          <g id="Group_838" data-name="Group 838" transform="translate(6.709 6.709)">
            <circle id="Ellipse_19" data-name="Ellipse 19" cx="15.282" cy="15.282" r="15.282" fill="#8ac9fe"/>
          </g>
          <g id="Group_839" data-name="Group 839" transform="translate(6.709 6.711)">
            <path id="Path_553" data-name="Path 553" d="M362.945,281.091a15.283,15.283,0,0,1,7.079-25.628,15.283,15.283,0,1,0,0,29.642A15.2,15.2,0,0,1,362.945,281.091Z" transform="translate(-351.014 -255.004)" fill="#60b7ff"/>
          </g>
        </g>
      </g>
      <g id="Group_863" data-name="Group 863" transform="translate(25.346 85.883)">
        <path id="Path_554" data-name="Path 554" d="M153.04,239.107H134.7v10.7a2.363,2.363,0,0,1-2.36,2.36h-35.4a2.363,2.363,0,0,1-2.36-2.36v-10.7H76.233A2.733,2.733,0,0,0,73.5,241.84v66.217a91.124,91.124,0,0,0,70.075,32.768,92.167,92.167,0,0,0,12.2-.813V241.84A2.733,2.733,0,0,0,153.04,239.107Z" transform="translate(-73.5 -235.865)" fill="#ffe5c2"/>
        <path id="Path_555" data-name="Path 555" d="M205.728,492H167.94l-1.141.373a90.989,90.989,0,0,0,35.3,7.082q2.253,0,4.479-.11v-6.972Z" transform="translate(-132.023 -394.494)" fill="#f8f6f6"/>
        <path id="Path_556" data-name="Path 556" d="M159.926,259.816H147.687V262.8a2.363,2.363,0,0,1-2.36,2.36h-35.4a2.363,2.363,0,0,1-2.36-2.36v-2.979H95.327a1.118,1.118,0,0,0-1.118,1.118V329.2a91.409,91.409,0,0,0,27.041,17.53h39.794v-85.8A1.118,1.118,0,0,0,159.926,259.816Z" transform="translate(-86.49 -248.855)" fill="#fff"/>
        <path id="Path_557" data-name="Path 557" d="M107.565,262.8v-2.979H95.327a1.118,1.118,0,0,0-1.118,1.118V329.2a91.757,91.757,0,0,0,13.972,10.745v-75.57A2.348,2.348,0,0,1,107.565,262.8Z" transform="translate(-86.49 -248.855)" fill="#f8f6f6"/>
        <g id="Group_843" data-name="Group 843" transform="translate(20.703)">
          <g id="Group_842" data-name="Group 842">
            <path id="Path_558" data-name="Path 558" d="M167.177,247.082h-35.4a2.733,2.733,0,0,1-2.733-2.733V233.142a2.733,2.733,0,0,1,2.733-2.733h35.4a2.733,2.733,0,0,1,2.733,2.733v11.207A2.733,2.733,0,0,1,167.177,247.082Z" transform="translate(-129.043 -230.409)" fill="#fac600"/>
          </g>
        </g>
        <path id="Path_559" data-name="Path 559" d="M140.717,244.349V233.142a2.733,2.733,0,0,1,2.733-2.733H131.776a2.733,2.733,0,0,0-2.733,2.733v11.207a2.733,2.733,0,0,0,2.733,2.733h11.673A2.733,2.733,0,0,1,140.717,244.349Z" transform="translate(-108.34 -230.409)" fill="#e8b800"/>
        <g id="Group_845" data-name="Group 845" transform="translate(15.056 21.768)">
          <g id="Group_844" data-name="Group 844">
            <path id="Path_560" data-name="Path 560" d="M134.895,295.679h-5.536a.668.668,0,0,1-.668-.668v-5.536a.668.668,0,0,0-.668-.668h-6.593a.668.668,0,0,0-.668.668v5.536a.668.668,0,0,1-.668.668H114.56a.668.668,0,0,0-.668.668v6.593a.668.668,0,0,0,.668.668H120.1a.668.668,0,0,1,.668.668v5.536a.668.668,0,0,0,.668.667h6.593a.668.668,0,0,0,.668-.667v-5.536a.668.668,0,0,1,.668-.668h5.536a.668.668,0,0,0,.668-.668v-6.593A.668.668,0,0,0,134.895,295.679Z" transform="translate(-113.892 -288.808)" fill="#22b27f"/>
          </g>
        </g>
        <g id="Group_846" data-name="Group 846" transform="translate(15.055 28.639)">
          <path id="Path_561" data-name="Path 561" d="M125.2,318.014a.668.668,0,0,1-.668-.668V311.81a.668.668,0,0,0-.668-.668h-5.536a.668.668,0,0,1-.668-.668v-3.232h-3.1a.668.668,0,0,0-.668.667V314.5a.668.668,0,0,0,.668.668h5.536a.668.668,0,0,1,.668.668v5.536a.668.668,0,0,0,.668.668h6.593a.668.668,0,0,0,.668-.668v-3.361Z" transform="translate(-113.891 -307.243)" fill="#09a76d"/>
        </g>
        <g id="Group_848" data-name="Group 848" transform="translate(30.005 5.541)">
          <g id="Group_847" data-name="Group 847">
            <path id="Path_562" data-name="Path 562" d="M173.466,250.865H156.793a2.8,2.8,0,1,1,0-5.591h16.673a2.8,2.8,0,1,1,0,5.591Z" transform="translate(-153.997 -245.274)" fill="#fff"/>
          </g>
        </g>
        <g id="Group_858" data-name="Group 858" transform="translate(12.813 77.645)">
          <g id="Group_852" data-name="Group 852">
            <g id="Group_850" data-name="Group 850">
              <g id="Group_849" data-name="Group 849">
                <path id="Path_563" data-name="Path 563" d="M125.73,444.309H110.671a2.8,2.8,0,1,1,0-5.591H125.73a2.8,2.8,0,1,1,0,5.591Z" transform="translate(-107.875 -438.718)" fill="#cecece"/>
              </g>
            </g>
            <g id="Group_851" data-name="Group 851" transform="translate(5.195 11.019)">
              <path id="Path_564" data-name="Path 564" d="M134.472,468.281h-12.66a91.228,91.228,0,0,0,9.14,5.591h3.52a2.8,2.8,0,0,0,0-5.591Z" transform="translate(-121.811 -468.281)" fill="#cecece"/>
            </g>
          </g>
          <g id="Group_857" data-name="Group 857" transform="translate(22.773)">
            <g id="Group_854" data-name="Group 854">
              <g id="Group_853" data-name="Group 853">
                <path id="Path_565" data-name="Path 565" d="M200.049,444.309H171.767a2.8,2.8,0,1,1,0-5.591h28.283a2.8,2.8,0,1,1,0,5.591Z" transform="translate(-168.971 -438.718)" fill="#cecece"/>
              </g>
            </g>
            <g id="Group_856" data-name="Group 856" transform="translate(0 11.019)">
              <g id="Group_855" data-name="Group 855">
                <path id="Path_566" data-name="Path 566" d="M200.049,473.872H171.767a2.8,2.8,0,0,1,0-5.591h28.283a2.8,2.8,0,0,1,0,5.591Z" transform="translate(-168.971 -468.281)" fill="#cecece"/>
              </g>
            </g>
          </g>
        </g>
        <g id="Group_860" data-name="Group 860" transform="translate(52.115 26.957)">
          <g id="Group_859" data-name="Group 859">
            <path id="Path_567" data-name="Path 567" d="M227.865,308.32H216.111a2.8,2.8,0,1,1,0-5.591h11.754a2.8,2.8,0,1,1,0,5.591Z" transform="translate(-213.315 -302.729)" fill="#22b27f"/>
          </g>
        </g>
        <g id="Group_862" data-name="Group 862" transform="translate(48.256 36.139)">
          <g id="Group_861" data-name="Group 861">
            <path id="Path_568" data-name="Path 568" d="M221.371,332.956H205.759a2.8,2.8,0,0,1,0-5.591h15.613a2.8,2.8,0,1,1,0,5.591Z" transform="translate(-202.963 -327.365)" fill="#cecece"/>
          </g>
        </g>
      </g>
    </g>
    <g id="Group_865" data-name="Group 865" transform="translate(43.265 135.245)">
      <path id="Path_569" data-name="Path 569" d="M181.953,379.742V365.636a2.8,2.8,0,1,0-5.591,0v14.106Z" transform="translate(-155.939 -362.84)" fill="#8ac9fe"/>
      <path id="Path_570" data-name="Path 570" d="M154.558,394.121v-5.562a2.8,2.8,0,0,0-5.591,0v5.562Z" transform="translate(-138.756 -377.219)" fill="#fe646f"/>
      <path id="Path_571" data-name="Path 571" d="M236.743,393.094v-6.172a2.8,2.8,0,0,0-5.591,0v6.172Z" transform="translate(-190.307 -376.192)" fill="#fe646f"/>
      <path id="Path_572" data-name="Path 572" d="M209.348,389.338v-8.4a2.8,2.8,0,0,0-5.591,0v8.4Z" transform="translate(-173.123 -372.436)" fill="#22b27f"/>
      <path id="Path_573" data-name="Path 573" d="M127.163,379.742V365.636a2.8,2.8,0,1,0-5.591,0v14.106Z" transform="translate(-121.572 -362.84)" fill="#8ac9fe"/>
    </g>
    <g id="Group_867" data-name="Group 867" transform="translate(38.159 151.775)">
      <g id="Group_866" data-name="Group 866">
        <path id="Path_574" data-name="Path 574" d="M161.726,412.776H110.671a2.8,2.8,0,1,1,0-5.591h51.056a2.8,2.8,0,1,1,0,5.591Z" transform="translate(-107.875 -407.185)" fill="#cecece"/>
      </g>
    </g>
  </g>
</svg>
