<svg xmlns="http://www.w3.org/2000/svg" width="192.162" height="192.162" viewBox="0 0 192.162 192.162">
  <g id="features02" transform="translate(0)">
    <g id="Group_876" data-name="Group 876" transform="translate(0)">
      <path id="Path_575" data-name="Path 575" d="M192.162,96.081c0,.552,0,1.1-.015,1.655v.09a96.048,96.048,0,0,1-82.142,93.334,96.087,96.087,0,1,1,82.157-95.079Z" transform="translate(0 0)" fill="#90d8f9"/>
      <g id="Group_872" data-name="Group 872" transform="translate(0)">
        <path id="Path_576" data-name="Path 576" d="M128.677,9.486l31.55,122.2a12.643,12.643,0,0,1-9.082,15.4l-103.788,26.8a12.643,12.643,0,0,1-15.4-9.082L.4,42.6A12.643,12.643,0,0,1,9.486,27.2L113.274.4a12.642,12.642,0,0,1,15.4,9.082Z" transform="translate(0 0)" fill="#dfeaef"/>
        <g id="Group_871" data-name="Group 871" transform="translate(29.252 56.334)">
          <g id="Group_870" data-name="Group 870">
            <path id="Path_577" data-name="Path 577" d="M169.475,156.618,81.833,179.246a2.978,2.978,0,0,1-3.628-2.139l-.17-.658a2.978,2.978,0,0,1,2.139-3.628l87.642-22.628a2.978,2.978,0,0,1,3.628,2.139l.17.658A2.978,2.978,0,0,1,169.475,156.618Z" transform="translate(-77.94 -150.098)" fill="#404a4a"/>
            <path id="Path_578" data-name="Path 578" d="M179.6,195.851,91.962,218.479a2.978,2.978,0,0,1-3.628-2.139l-.17-.658a2.978,2.978,0,0,1,2.139-3.628l87.642-22.628a2.978,2.978,0,0,1,3.628,2.139l.17.657A2.978,2.978,0,0,1,179.6,195.851Z" transform="translate(-84.267 -174.606)" fill="#404a4a"/>
            <path id="Path_579" data-name="Path 579" d="M189.734,235.084l-87.642,22.628a2.978,2.978,0,0,1-3.628-2.139l-.17-.658a2.978,2.978,0,0,1,2.139-3.628l87.642-22.628A2.978,2.978,0,0,1,191.7,230.8l.17.658A2.978,2.978,0,0,1,189.734,235.084Z" transform="translate(-90.595 -199.114)" fill="#404a4a"/>
            <path id="Path_580" data-name="Path 580" d="M199.864,274.316l-87.642,22.628a2.978,2.978,0,0,1-3.628-2.139l-.17-.658a2.978,2.978,0,0,1,2.139-3.628l87.642-22.628a2.978,2.978,0,0,1,3.628,2.139l.17.658A2.978,2.978,0,0,1,199.864,274.316Z" transform="translate(-96.923 -223.623)" fill="#404a4a"/>
            <path id="Path_581" data-name="Path 581" d="M176.935,336.357,122.8,350.333a3.318,3.318,0,1,1-1.659-6.425l54.133-13.976a3.318,3.318,0,1,1,1.659,6.425Z" transform="translate(-103.374 -262.371)" fill="#404a4a"/>
          </g>
        </g>
        <path id="Path_582" data-name="Path 582" d="M77.616,113.643a9.308,9.308,0,0,0-11.181-11.9l-7.322,1.89a3.325,3.325,0,0,0-2.388,4.051l3,11.606,0,.019,3.506,13.58a3.325,3.325,0,0,0,4.051,2.388l.014,0s6.723-1.768,8.578-2.247a10.328,10.328,0,0,0,1.74-19.383ZM68.1,108.18a2.665,2.665,0,1,1,1.332,5.16c-.535.138-1.54.4-2.637.688l-1.463.378L64,109.24Zm6.116,18.405c-.992.256-3.37.879-5.376,1.406l-1.844-7.14,1.467-.385,3.912-1.01a3.682,3.682,0,0,1,1.841,7.129Z" transform="translate(-35.368 -63.37)" fill="#66b49d"/>
      </g>
      <g id="Group_875" data-name="Group 875" transform="translate(39.185 28.359)">
        <path id="Path_583" data-name="Path 583" d="M257.382,144.964l-.015.064-10.865,42.7a96.156,96.156,0,0,1-71.276,50.634l-61.289-15.594A12.644,12.644,0,0,1,104.8,207.4L135.914,85.09a12.641,12.641,0,0,1,15.373-9.135l78.6,20,27.481,48.986Z" transform="translate(-104.404 -75.56)" fill="#f6f1f1"/>
        <path id="Path_584" data-name="Path 584" d="M454.057,178.9l-25.284-6.433a12.643,12.643,0,0,1-9.136-15.371l6.923-27.211Z" transform="translate(-301.079 -109.496)" fill="#dfeaef"/>
        <g id="Group_874" data-name="Group 874" transform="translate(22.421 21.306)">
          <g id="Group_873" data-name="Group 873" transform="translate(0 35.039)">
            <path id="Path_585" data-name="Path 585" d="M293.876,254.526l-87.722-22.317a2.978,2.978,0,0,1-2.152-3.62l.167-.658a2.978,2.978,0,0,1,3.62-2.152L295.512,248.1a2.978,2.978,0,0,1,2.152,3.62l-.167.658A2.977,2.977,0,0,1,293.876,254.526Z" transform="translate(-188.985 -225.686)" fill="#404a4a"/>
            <path id="Path_586" data-name="Path 586" d="M283.886,293.8l-87.721-22.317a2.978,2.978,0,0,1-2.152-3.62l.167-.658a2.978,2.978,0,0,1,3.62-2.152l87.721,22.317a2.978,2.978,0,0,1,2.152,3.62l-.167.658A2.978,2.978,0,0,1,283.886,293.8Z" transform="translate(-182.744 -250.217)" fill="#404a4a"/>
            <path id="Path_587" data-name="Path 587" d="M273.9,333.064l-87.721-22.317a2.978,2.978,0,0,1-2.152-3.62l.167-.658a2.978,2.978,0,0,1,3.62-2.152l87.721,22.317a2.978,2.978,0,0,1,2.152,3.62l-.167.658A2.978,2.978,0,0,1,273.9,333.064Z" transform="translate(-176.504 -274.747)" fill="#404a4a"/>
            <path id="Path_588" data-name="Path 588" d="M263.9,372.333l-87.721-22.317a2.978,2.978,0,0,1-2.152-3.62l.167-.658a2.978,2.978,0,0,1,3.62-2.152L265.541,365.9a2.977,2.977,0,0,1,2.152,3.62l-.167.658A2.978,2.978,0,0,1,263.9,372.333Z" transform="translate(-170.262 -299.278)" fill="#404a4a"/>
            <path id="Path_589" data-name="Path 589" d="M220.826,403.274l-54.182-13.785a3.318,3.318,0,1,1,1.636-6.43l54.182,13.785a3.318,3.318,0,1,1-1.636,6.43Z" transform="translate(-164.143 -323.93)" fill="#404a4a"/>
          </g>
          <path id="Path_590" data-name="Path 590" d="M243.158,135.791c0-.032-.007-.065-.012-.1a3.9,3.9,0,0,0-2.911-3.244h0a3.9,3.9,0,0,0-4.109,1.466l-.047.066-15.8,22.463a3.325,3.325,0,1,0,5.44,3.827l2.617-3.72,10.772,2.741.505,4.5a3.325,3.325,0,1,0,6.609-.742Zm-10.733,14.938,4.93-7.008.954,8.505Z" transform="translate(-198.828 -132.328)" fill="#f93d6e"/>
        </g>
      </g>
    </g>
  </g>
</svg>
