<svg xmlns="http://www.w3.org/2000/svg" width="186.671" height="195.051" viewBox="0 0 186.671 195.051">
  <g id="features03" transform="translate(0)">
    <g id="Group_891" data-name="Group 891" transform="translate(0)">
      <path id="Path_591" data-name="Path 591" d="M184.29,163.5a93.336,93.336,0,1,0-159.913,0Z" transform="translate(-10.998 -13.616)" fill="#ffdd40"/>
      <path id="Path_592" data-name="Path 592" d="M194.1,164.824a93.689,93.689,0,0,0,11.65-15.7V16.572A16.572,16.572,0,0,0,189.177,0H61.507A16.572,16.572,0,0,0,44.935,16.572V149.126a93.694,93.694,0,0,0,11.649,15.7Z" transform="translate(-32.006 0)" fill="#167cc1"/>
      <path id="Path_593" data-name="Path 593" d="M93.026,132.272a1.826,1.826,0,0,0,1-1.641v-6.444a1.87,1.87,0,0,0-.3-1.011c-1.813-2.816.111-5.36,1.411-6.621a1.8,1.8,0,0,0,.417-1.968,5.889,5.889,0,0,1,.552-5.747,1.865,1.865,0,0,0-.331-2.458c-2.819-2.467-1.731-5.661-1.056-7.037a1.878,1.878,0,0,0,.068-1.5L91.679,89.7a1.945,1.945,0,0,0-.374-.6,4.355,4.355,0,0,1-.344-5.523,1.855,1.855,0,0,0-.4-2.389c-2.595-2.189-1.632-4.706-.816-6.025a1.924,1.924,0,0,0,.056-1.938c-3.185-5.818.727-9.637,2.445-10.946a1.848,1.848,0,0,0,.732-1.47V56.72a1.862,1.862,0,0,0-1.035-1.655,7.565,7.565,0,0,1-4.059-5.6,1.867,1.867,0,0,1-.017-.252V33.951a9.481,9.481,0,0,1,3-6.592,1.867,1.867,0,0,0,.45-1.96,2.233,2.233,0,0,1,.331-2.034,1.862,1.862,0,0,0,.334-1.044V15.4a1.743,1.743,0,0,0-.314-1.032,2.14,2.14,0,0,1-.253-2.18,1.574,1.574,0,0,0-.308-1.71C86.645,5.915,90,1.858,91.424.49A1.791,1.791,0,0,0,91.776,0H61.507A16.572,16.572,0,0,0,44.935,16.572V149.126a93.7,93.7,0,0,0,11.649,15.7H90.026V137.19a5.219,5.219,0,0,1,3-4.919Z" transform="translate(-32.006 0)" fill="#0e62a8"/>
      <path id="Path_594" data-name="Path 594" d="M74.577,277a93.336,93.336,0,0,0,138.229,0V255.768L74.577,181.83Z" transform="translate(-50.356 -112.56)" fill="#e9efff"/>
      <path id="Path_595" data-name="Path 595" d="M74.577,277a93.485,93.485,0,0,0,36.113,24.6,13.126,13.126,0,0,1,1.941-12.794,1.9,1.9,0,0,0-.592-2.8,7.591,7.591,0,0,1-3.662-6.631v-29.62a5.218,5.218,0,0,1,3-4.919,1.826,1.826,0,0,0,1-1.641v-6.444a1.87,1.87,0,0,0-.3-1.011c-1.813-2.816.111-5.36,1.411-6.621a1.8,1.8,0,0,0,.417-1.968,5.889,5.889,0,0,1,.552-5.747,1.865,1.865,0,0,0-.331-2.458c-2.819-2.467-1.731-5.661-1.056-7.037a1.877,1.877,0,0,0,.068-1.5l-3.108-8.148a1.945,1.945,0,0,0-.374-.6,4.669,4.669,0,0,1-.958-1.586L74.578,181.83V277Z" transform="translate(-50.356 -112.56)" fill="#d3dcfb"/>
      <path id="Path_596" data-name="Path 596" d="M74.577,111.638l138.229,73.938V67.091H74.577Z" transform="translate(-50.356 -41.532)" fill="#9bd8f9"/>
      <path id="Path_597" data-name="Path 597" d="M74.577,111.638l34.741,18.583a4.371,4.371,0,0,1-.008-5.107,1.855,1.855,0,0,0-.4-2.389c-2.595-2.189-1.632-4.706-.816-6.025a1.925,1.925,0,0,0,.056-1.938c-3.185-5.818.727-9.637,2.445-10.946a1.848,1.848,0,0,0,.732-1.47V98.252a1.862,1.862,0,0,0-1.035-1.655,7.565,7.565,0,0,1-4.059-5.6,1.863,1.863,0,0,1-.017-.252V75.484a9.481,9.481,0,0,1,3-6.593,1.867,1.867,0,0,0,.5-1.8H74.577Z" transform="translate(-50.356 -41.532)" fill="#73c3f9"/>
      <path id="Path_598" data-name="Path 598" d="M359,99.818H337.731v10.154H359a5.077,5.077,0,0,0,0-10.154Z" transform="translate(-213.259 -61.791)" fill="#e9efff"/>
      <path id="Path_599" data-name="Path 599" d="M318.948,99.818H311.79a5.077,5.077,0,0,0,0,10.155h7.158Z" transform="translate(-194.058 -61.791)" fill="#2a428c"/>
      <path id="Path_600" data-name="Path 600" d="M106.156,301.565v53.091a6.4,6.4,0,0,0,6.38,6.38h38.546a6.4,6.4,0,0,0,6.38-6.38V301.565Z" transform="translate(-69.905 -186.681)" fill="#ffdd40"/>
      <path id="Path_601" data-name="Path 601" d="M106.156,354.655a6.4,6.4,0,0,0,6.38,6.38h19.873a1.94,1.94,0,0,0-.822-.913,7.591,7.591,0,0,1-3.662-6.631v-29.62a5.218,5.218,0,0,1,3-4.919,1.826,1.826,0,0,0,1-1.641v-6.444a1.87,1.87,0,0,0-.3-1.011c-1.813-2.816.111-5.36,1.411-6.621a1.808,1.808,0,0,0,.506-1.672H106.157v53.091Z" transform="translate(-69.905 -186.681)" fill="#ffb332"/>
      <g id="Group_878" data-name="Group 878" transform="translate(35.351 55.506)">
        <path id="Path_602" data-name="Path 602" d="M111.042,151.975H106.93a3.137,3.137,0,0,1,0-6.274h4.112a3.137,3.137,0,1,1,0,6.274Z" transform="translate(-103.793 -145.701)" fill="#e9efff"/>
      </g>
      <g id="Group_879" data-name="Group 879" transform="translate(49.579 55.506)">
        <path id="Path_603" data-name="Path 603" d="M172.243,151.975H144.278a3.137,3.137,0,1,1,0-6.274h27.965a3.137,3.137,0,0,1,0,6.274Z" transform="translate(-141.141 -145.701)" fill="#e9efff"/>
      </g>
      <path id="Path_604" data-name="Path 604" d="M151.082,194.91H112.536a6.4,6.4,0,0,0-6.38,6.38v35.088h51.306V201.29A6.4,6.4,0,0,0,151.082,194.91Z" transform="translate(-69.905 -120.657)" fill="#ff4155"/>
      <path id="Path_605" data-name="Path 605" d="M133.452,235.244A5.889,5.889,0,0,1,134,229.5a1.865,1.865,0,0,0-.331-2.458c-2.819-2.467-1.731-5.661-1.056-7.037a1.878,1.878,0,0,0,.068-1.5l-3.108-8.148a1.946,1.946,0,0,0-.374-.6,4.355,4.355,0,0,1-.344-5.523,1.855,1.855,0,0,0-.4-2.389c-2.595-2.189-1.632-4.706-.816-6.025a1.934,1.934,0,0,0,.285-.915H112.536a6.4,6.4,0,0,0-6.38,6.38v35.088h27.363A1.78,1.78,0,0,0,133.452,235.244Z" transform="translate(-69.905 -120.657)" fill="#e80054"/>
      <circle id="Ellipse_20" data-name="Ellipse 20" cx="12.929" cy="12.929" r="12.929" transform="translate(43.605 94.983) rotate(-45)" fill="#e9efff"/>
      <path id="Path_606" data-name="Path 606" d="M154.349,240.185c-2.819-2.467-1.731-5.661-1.056-7.037a1.877,1.877,0,0,0,.068-1.5l-3.108-8.148a1.944,1.944,0,0,0-.374-.6,4.355,4.355,0,0,1-.344-5.523,1.835,1.835,0,0,0,.247-1.24,12.93,12.93,0,0,0,5.206,25.329,1.88,1.88,0,0,0-.639-1.288Z" transform="translate(-90.581 -133.802)" fill="#d3dcfb"/>
      <g id="Group_880" data-name="Group 880" transform="translate(44.41 123.605)">
        <path id="Path_607" data-name="Path 607" d="M144.244,332.823h-12.49a4.182,4.182,0,0,1,0-8.364h12.49a4.182,4.182,0,0,1,0,8.364Z" transform="translate(-127.572 -324.459)" fill="#fcf2c8"/>
      </g>
      <g id="Group_881" data-name="Group 881" transform="translate(43.782 137.19)">
        <path id="Path_608" data-name="Path 608" d="M159.27,366.393H129.062a3.137,3.137,0,0,1,0-6.274H159.27a3.137,3.137,0,0,1,0,6.274Z" transform="translate(-125.925 -360.119)" fill="#ff9100"/>
      </g>
      <g id="Group_882" data-name="Group 882" transform="translate(43.782 147.917)">
        <path id="Path_609" data-name="Path 609" d="M159.27,394.55H129.062a3.137,3.137,0,1,1,0-6.274H159.27a3.137,3.137,0,1,1,0,6.274Z" transform="translate(-125.925 -388.276)" fill="#ff9100"/>
      </g>
      <g id="Group_883" data-name="Group 883" transform="translate(43.782 158.645)">
        <path id="Path_610" data-name="Path 610" d="M159.27,422.709H129.062a3.137,3.137,0,1,1,0-6.274H159.27a3.137,3.137,0,1,1,0,6.274Z" transform="translate(-125.925 -416.435)" fill="#ff9100"/>
      </g>
      <path id="Path_611" data-name="Path 611" d="M207.527,29.641H79.857a5.3,5.3,0,0,0-5.28,5.28v9.823H212.806V34.921a5.3,5.3,0,0,0-5.279-5.28Z" transform="translate(-50.356 -18.349)" fill="#2a428c"/>
      <path id="Path_612" data-name="Path 612" d="M109.665,43.747A2.233,2.233,0,0,1,110,41.714a1.862,1.862,0,0,0,.335-1.044V33.748a1.743,1.743,0,0,0-.314-1.032,2.14,2.14,0,0,1-.253-2.18,1.635,1.635,0,0,0,.1-.9H79.857a5.3,5.3,0,0,0-5.28,5.28v9.823h35.157A1.84,1.84,0,0,0,109.665,43.747Z" transform="translate(-50.356 -18.349)" fill="#1c2e7a"/>
      <path id="Path_613" data-name="Path 613" d="M106.164,42.781a4.112,4.112,0,1,1-4.113-4.112A4.112,4.112,0,0,1,106.164,42.781Z" transform="translate(-64.818 -23.938)" fill="#ff4155"/>
      <path id="Path_614" data-name="Path 614" d="M136.011,42.781a4.112,4.112,0,1,1-4.112-4.112A4.112,4.112,0,0,1,136.011,42.781Z" transform="translate(-83.295 -23.938)" fill="#ffdd40"/>
      <path id="Path_615" data-name="Path 615" d="M165.858,42.781a4.112,4.112,0,1,1-4.112-4.112A4.112,4.112,0,0,1,165.858,42.781Z" transform="translate(-101.771 -23.938)" fill="#38c674"/>
      <g id="Group_884" data-name="Group 884" transform="translate(74.455 15.707)">
        <path id="Path_616" data-name="Path 616" d="M250.842,47.5H209.577a3.137,3.137,0,0,1,0-6.274h41.265a3.137,3.137,0,1,1,0,6.274Z" transform="translate(-206.44 -41.229)" fill="#3c58a0"/>
      </g>
      <g id="Group_885" data-name="Group 885" transform="translate(145.665 15.707)">
        <path id="Path_617" data-name="Path 617" d="M400.076,47.5H396.5a3.137,3.137,0,0,1,0-6.274h3.576a3.137,3.137,0,0,1,0,6.274Z" transform="translate(-393.363 -41.229)" fill="#3c58a0"/>
      </g>
      <g id="Group_886" data-name="Group 886" transform="translate(133.233 15.707)">
        <path id="Path_618" data-name="Path 618" d="M367.443,47.5h-3.576a3.137,3.137,0,0,1,0-6.274h3.576a3.137,3.137,0,0,1,0,6.274Z" transform="translate(-360.73 -41.229)" fill="#3c58a0"/>
      </g>
      <path id="Path_619" data-name="Path 619" d="M172.037,238.87l-6.314-4.037a1.581,1.581,0,0,0-2.433,1.332v8.074a1.581,1.581,0,0,0,2.433,1.332l6.314-4.037A1.582,1.582,0,0,0,172.037,238.87Z" transform="translate(-105.273 -145.216)" fill="#ff4155"/>
      <path id="Path_620" data-name="Path 620" d="M271.169,301.565v53.091a6.4,6.4,0,0,0,6.38,6.38h38.546a6.4,6.4,0,0,0,6.38-6.38V301.565Z" transform="translate(-172.055 -186.681)" fill="#ffdd40"/>
      <path id="Path_621" data-name="Path 621" d="M271.169,354.655a6.4,6.4,0,0,0,6.38,6.38h19.873a1.94,1.94,0,0,0-.822-.913,7.591,7.591,0,0,1-3.662-6.631v-29.62a5.218,5.218,0,0,1,3-4.919,1.826,1.826,0,0,0,1-1.641v-6.444a1.87,1.87,0,0,0-.3-1.011c-1.813-2.816.111-5.36,1.411-6.621a1.807,1.807,0,0,0,.506-1.672H271.169v53.091Z" transform="translate(-172.055 -186.681)" fill="#ffb332"/>
      <path id="Path_622" data-name="Path 622" d="M316.1,194.91H277.55a6.4,6.4,0,0,0-6.38,6.38v35.088h51.306V201.29A6.4,6.4,0,0,0,316.1,194.91Z" transform="translate(-172.055 -120.657)" fill="#ff4155"/>
      <path id="Path_623" data-name="Path 623" d="M298.466,235.244a5.889,5.889,0,0,1,.553-5.747,1.865,1.865,0,0,0-.332-2.458c-2.82-2.467-1.731-5.661-1.056-7.037a1.877,1.877,0,0,0,.068-1.5l-3.108-8.148a1.942,1.942,0,0,0-.374-.6,4.355,4.355,0,0,1-.344-5.523,1.855,1.855,0,0,0-.4-2.389c-2.594-2.189-1.632-4.706-.816-6.025a1.94,1.94,0,0,0,.286-.915H277.551a6.4,6.4,0,0,0-6.38,6.38v35.088h27.363A1.785,1.785,0,0,0,298.466,235.244Z" transform="translate(-172.056 -120.657)" fill="#e80054"/>
      <circle id="Ellipse_21" data-name="Ellipse 21" cx="12.929" cy="12.929" r="12.929" transform="translate(106.462 94.99) rotate(-45)" fill="#e9efff"/>
      <path id="Path_624" data-name="Path 624" d="M319.363,240.185c-2.82-2.467-1.731-5.661-1.056-7.037a1.877,1.877,0,0,0,.068-1.5l-3.108-8.148a1.947,1.947,0,0,0-.374-.6,4.355,4.355,0,0,1-.344-5.523,1.835,1.835,0,0,0,.247-1.24A12.93,12.93,0,0,0,320,241.473,1.882,1.882,0,0,0,319.363,240.185Z" transform="translate(-192.731 -133.802)" fill="#d3dcfb"/>
      <g id="Group_887" data-name="Group 887" transform="translate(107.273 123.605)">
        <path id="Path_625" data-name="Path 625" d="M309.257,332.823h-12.49a4.182,4.182,0,1,1,0-8.364h12.49a4.182,4.182,0,1,1,0,8.364Z" transform="translate(-292.585 -324.459)" fill="#fcf2c8"/>
      </g>
      <g id="Group_888" data-name="Group 888" transform="translate(106.646 137.19)">
        <path id="Path_626" data-name="Path 626" d="M324.283,366.393H294.075a3.137,3.137,0,0,1,0-6.274h30.209a3.137,3.137,0,0,1,0,6.274Z" transform="translate(-290.938 -360.119)" fill="#ff9100"/>
      </g>
      <g id="Group_889" data-name="Group 889" transform="translate(106.646 147.917)">
        <path id="Path_627" data-name="Path 627" d="M324.283,394.55H294.075a3.137,3.137,0,0,1,0-6.274h30.209a3.137,3.137,0,1,1,0,6.274Z" transform="translate(-290.938 -388.276)" fill="#ff9100"/>
      </g>
      <g id="Group_890" data-name="Group 890" transform="translate(106.646 158.645)">
        <path id="Path_628" data-name="Path 628" d="M324.283,422.709H294.075a3.137,3.137,0,0,1,0-6.274h30.209a3.137,3.137,0,1,1,0,6.274Z" transform="translate(-290.938 -416.435)" fill="#ff9100"/>
      </g>
      <path id="Path_629" data-name="Path 629" d="M337.05,238.87l-6.314-4.037a1.581,1.581,0,0,0-2.433,1.332v8.074a1.581,1.581,0,0,0,2.433,1.332l6.314-4.037A1.582,1.582,0,0,0,337.05,238.87Z" transform="translate(-207.423 -145.216)" fill="#ff4155"/>
    </g>
  </g>
</svg>
