<svg id="heading-shape" xmlns="http://www.w3.org/2000/svg" xmlns:xlink="http://www.w3.org/1999/xlink" width="162.577" height="54.19" viewBox="0 0 162.577 54.19">
  <defs>
    <clipPath id="clip-path">
      <rect id="Rectangle_37" data-name="Rectangle 37" width="162.577" height="54.19" fill="#c05deb" stroke="#a650cb" stroke-width="1"/>
    </clipPath>
  </defs>
  <g id="Group_68920" data-name="Group 68920" clip-path="url(#clip-path)">
    <path id="Path_33458" data-name="Path 33458" d="M62.526,54.19c-6.234,0-12.476-.193-18.689-.581-7.679-.48-18.9-1.478-27.691-4.594C3.3,44.46-2.824,35.5,1.25,27.228,4.815,19.992,15.642,13.181,30.959,8.542a171.079,171.079,0,0,1,21.9-4.909c26.526-4.314,51.9-4.795,73.382-1.391,10.013,1.587,18.039,3.825,23.858,6.653,10.43,5.069,14.839,12.822,11.233,19.753-2.356,4.535-7.97,8.833-16.227,12.429-6.779,2.951-15.323,5.448-26.12,7.634a287.012,287.012,0,0,1-56.463,5.48M31.776,9.171C16.8,13.708,6.218,20.352,2.747,27.4-1.188,35.39,4.7,44.033,17.057,48.416c8.5,3.015,19.466,3.987,26.977,4.456a289.332,289.332,0,0,0,74.361-4.847c10.636-2.153,19.037-4.607,25.685-7.5,8.03-3.5,13.483-7.666,15.768-12.058,3.476-6.683-.776-14.16-10.833-19.048-5.646-2.744-13.467-4.921-23.247-6.471C104.6-.406,79.559.074,53.354,4.337A168.473,168.473,0,0,0,31.776,9.171" transform="translate(0 0)" fill="#c05deb" stroke="#a650cb" stroke-width="1"/>
  </g>
</svg>
