<svg xmlns="http://www.w3.org/2000/svg" width="548.726" height="434.813" viewBox="0 0 548.726 434.813">
  <path id="mask-image" d="M425.843,367.384c30.011-52.1,86.265-90.419,146.2-97.617,30.7-3.686,60.534,2.616,89.113,13.666,7.125,2.756,18.37,8.169,25.118,11.747,5.335,2.826,10.766,5.416,16.094,8.276A160.229,160.229,0,0,1,732.833,324.7c37.094,32.9,56.66,81.845,55.852,131.092-.07,4.184-.435,8.32-.79,12.463a71.034,71.034,0,0,0,1.018,17.171c.93,4.416,2.048,8.788,3.324,13.113a190.151,190.151,0,0,0,8.128,22.288c3.084,7.073,6.936,13.758,10.054,20.805a115.707,115.707,0,0,1,4.5,81.125c-14.356,45.337-56.8,78.288-104.328,80.66-22.893,1.14-45.864-7.412-67.142-14.858-13.625-4.763-27.107-9.925-40.526-15.238-13.437-5.32-26.314-10.718-40.961-11.445a86.535,86.535,0,0,0-41.319,8.313c-6.5,3.092-12.29,7.29-18.484,10.91A153.068,153.068,0,0,1,399.548,699.9c-46.857-7.807-88.227-38.065-110.438-79.974a153.524,153.524,0,0,1,74.554-212.262c11.508-5.007,24.144-7.232,35.12-13.4A72.366,72.366,0,0,0,425.843,367.384Z" transform="translate(-271.478 -268.711)"/>
</svg>
