<svg xmlns="http://www.w3.org/2000/svg" width="236.195" height="55.476" viewBox="0 0 236.195 55.476">
  <g id="shape03" transform="translate(0 0)">
    <rect id="Rectangle_39" data-name="Rectangle 39" width="4.237" height="4.237" transform="translate(0 0)" fill="#c05deb"/>
    <rect id="Rectangle_40" data-name="Rectangle 40" width="4.237" height="4.237" transform="translate(0 25.621)" fill="#c05deb"/>
    <rect id="Rectangle_41" data-name="Rectangle 41" width="4.237" height="4.237" transform="translate(0 51.239)" fill="#c05deb"/>
    <rect id="Rectangle_42" data-name="Rectangle 42" width="4.237" height="4.237" transform="translate(23.196 0)" fill="#c05deb"/>
    <rect id="Rectangle_43" data-name="Rectangle 43" width="4.237" height="4.238" transform="translate(23.196 25.619)" fill="#c05deb"/>
    <rect id="Rectangle_44" data-name="Rectangle 44" width="4.237" height="4.237" transform="translate(23.196 51.239)" fill="#c05deb"/>
    <rect id="Rectangle_45" data-name="Rectangle 45" width="4.238" height="4.237" transform="translate(46.39 0)" fill="#c05deb"/>
    <rect id="Rectangle_46" data-name="Rectangle 46" width="4.237" height="4.238" transform="translate(46.392 25.619)" fill="#c05deb"/>
    <rect id="Rectangle_47" data-name="Rectangle 47" width="4.238" height="4.237" transform="translate(46.39 51.239)" fill="#c05deb"/>
    <rect id="Rectangle_48" data-name="Rectangle 48" width="4.238" height="4.237" transform="translate(69.586 0)" fill="#c05deb"/>
    <rect id="Rectangle_49" data-name="Rectangle 49" width="4.237" height="4.238" transform="translate(69.588 25.619)" fill="#c05deb"/>
    <rect id="Rectangle_50" data-name="Rectangle 50" width="4.238" height="4.237" transform="translate(69.586 51.239)" fill="#c05deb"/>
    <rect id="Rectangle_51" data-name="Rectangle 51" width="4.237" height="4.237" transform="translate(92.784 0)" fill="#c05deb"/>
    <rect id="Rectangle_52" data-name="Rectangle 52" width="4.237" height="4.238" transform="translate(92.784 25.619)" fill="#c05deb"/>
    <rect id="Rectangle_53" data-name="Rectangle 53" width="4.237" height="4.237" transform="translate(92.784 51.239)" fill="#c05deb"/>
    <rect id="Rectangle_54" data-name="Rectangle 54" width="4.237" height="4.237" transform="translate(115.98 0)" fill="#c05deb"/>
    <rect id="Rectangle_55" data-name="Rectangle 55" width="4.237" height="4.238" transform="translate(115.98 25.619)" fill="#c05deb"/>
    <rect id="Rectangle_56" data-name="Rectangle 56" width="4.237" height="4.237" transform="translate(115.98 51.239)" fill="#c05deb"/>
    <rect id="Rectangle_57" data-name="Rectangle 57" width="4.237" height="4.237" transform="translate(139.176 0)" fill="#c05deb"/>
    <rect id="Rectangle_58" data-name="Rectangle 58" width="4.237" height="4.238" transform="translate(139.176 25.619)" fill="#c05deb"/>
    <rect id="Rectangle_59" data-name="Rectangle 59" width="4.237" height="4.237" transform="translate(139.176 51.239)" fill="#c05deb"/>
    <rect id="Rectangle_60" data-name="Rectangle 60" width="4.237" height="4.237" transform="translate(162.372 0)" fill="#c05deb"/>
    <rect id="Rectangle_61" data-name="Rectangle 61" width="4.238" height="4.238" transform="translate(162.37 25.619)" fill="#c05deb"/>
    <rect id="Rectangle_62" data-name="Rectangle 62" width="4.237" height="4.237" transform="translate(162.372 51.239)" fill="#c05deb"/>
    <rect id="Rectangle_63" data-name="Rectangle 63" width="4.238" height="4.237" transform="translate(185.566 0)" fill="#c05deb"/>
    <rect id="Rectangle_64" data-name="Rectangle 64" width="4.237" height="4.238" transform="translate(185.568 25.619)" fill="#c05deb"/>
    <rect id="Rectangle_65" data-name="Rectangle 65" width="4.238" height="4.237" transform="translate(185.566 51.239)" fill="#c05deb"/>
    <rect id="Rectangle_66" data-name="Rectangle 66" width="4.237" height="4.237" transform="translate(208.762 0)" fill="#c05deb"/>
    <rect id="Rectangle_67" data-name="Rectangle 67" width="4.237" height="4.238" transform="translate(208.764 25.619)" fill="#c05deb"/>
    <rect id="Rectangle_68" data-name="Rectangle 68" width="4.237" height="4.237" transform="translate(208.762 51.239)" fill="#c05deb"/>
    <rect id="Rectangle_69" data-name="Rectangle 69" width="4.237" height="4.237" transform="translate(231.958 0)" fill="#c05deb"/>
    <rect id="Rectangle_70" data-name="Rectangle 70" width="4.237" height="4.237" transform="translate(231.958 25.621)" fill="#c05deb"/>
    <rect id="Rectangle_71" data-name="Rectangle 71" width="4.237" height="4.237" transform="translate(231.958 51.239)" fill="#c05deb"/>
  </g>
</svg>
